# xmcd
#
# Track frame offsets:
#	150
#	8644
#	20153
#	39287
#	48362
#	63554
#	81019
#	97420
#	122425
#
# Disc length: 1859 seconds
#
# Revision: 1
# Processed by: cddbd v1.5.2PL0 Copyright (c) Steve Scherf et al.
# Submitted via: audiograbber 1.83.01
#
DISCID=6d074109
DTITLE=Bill Stix and the Revenuers - Stix in Your Head
DYEAR=2000
DGENRE=Country
TTITLE0=A Western Movie Theme
TTITLE1=Rockabilly Ghost
TTITLE2=Olga
TTITLE3=Dan Patch Electric Line
TTITLE4=Goldon Sun Records
TTITLE5=Sonic Blues
TTITLE6=I'm Not Normal
TTITLE7=Moon Over Endion
TTITLE8=Data Track
EXTD=
EXTT0=
EXTT1=
EXTT2=
EXTT3=
EXTT4=
EXTT5=
EXTT6=
EXTT7=
EXTT8=
PLAYORDER=
